<?xml version="1.0" encoding="UTF-8"?>
<svg viewBox="0 0 166.50165 93.545761" xmlns="http://www.w3.org/2000/svg" xmlns:xlink="http://www.w3.org/1999/xlink">
 <defs>
  <filter id="k">
   <feGaussianBlur stdDeviation="1.8643"/>
  </filter>
  <filter id="j">
   <feGaussianBlur stdDeviation=".9764"/>
  </filter>
  <filter id="b">
   <feGaussianBlur stdDeviation=".6286"/>
  </filter>
  <filter id="i"/>
  <linearGradient id="a">
   <stop stop-color="#222" offset="0"/>
   <stop stop-color="#aaa" offset="1"/>
  </linearGradient>
  <linearGradient id="h">
   <stop stop-color="#fff" offset="0"/>
   <stop stop-color="#fff" stop-opacity="0" offset="1"/>
  </linearGradient>
  <linearGradient id="n" x1="470.35" x2="479.29" y1="153.1" y2="186.45" gradientUnits="userSpaceOnUse" spreadMethod="reflect">
   <stop stop-color="#4cffff" offset="0"/>
   <stop stop-color="#0052c9" offset="1"/>
  </linearGradient>
  <linearGradient id="p" x1="304.58" x2="313.52" y1="154.11" y2="187.46" gradientUnits="userSpaceOnUse" xlink:href="#a" spreadMethod="reflect"/>
  <linearGradient id="o" x1="386.62" x2="386.53" y1="136.57" y2="169.77" gradientUnits="userSpaceOnUse" xlink:href="#h"/>
  <linearGradient id="m" x1="462.81" x2="462.72" y1="136.11" y2="169.3" gradientUnits="userSpaceOnUse" xlink:href="#h"/>
  <linearGradient id="g" x1="238.27" x2="278.87" y1="188.38" y2="147.77" gradientUnits="userSpaceOnUse" xlink:href="#a" spreadMethod="reflect"/>
  <linearGradient id="f" x1="195.71" x2="321.43" gradientUnits="userSpaceOnUse" xlink:href="#a"/>
  <linearGradient id="e" x1="244.47" x2="270.36" y1="145.62" y2="190.46" gradientUnits="userSpaceOnUse" xlink:href="#a" spreadMethod="reflect"/>
  <linearGradient id="d" x1="253.01" x2="261.82" y1="184.48" y2="151.6" gradientUnits="userSpaceOnUse" xlink:href="#a" spreadMethod="reflect"/>
  <radialGradient id="c" cx="258.57" cy="168.08" r="62.857" gradientUnits="userSpaceOnUse">
   <stop stop-color="#c7c7c7" offset="0"/>
   <stop stop-color="#666" offset=".9085"/>
   <stop offset="1"/>
  </radialGradient>
  <radialGradient id="l" cx="421.6" cy="166.41" r="83.251" gradientTransform="matrix(1 0 0 .56183 0 72.917)" gradientUnits="userSpaceOnUse" xlink:href="#a" spreadMethod="reflect"/>
 </defs>
 <g transform="translate(-338.35 -119.64)">
  <path d="m338.35 119.64h166.5v93.546h-166.5z" fill="url(#l)"/>
  <path transform="matrix(-.56497 0 0 -.56497 605.77 262.14)" d="m321.43 168.08c0 34.715-28.142 62.857-62.857 62.857s-62.857-28.142-62.857-62.857 28.142-62.857 62.857-62.857 62.857 28.142 62.857 62.857z" fill="url(#d)" stroke="#808080"/>
  <path transform="matrix(.54408 0 0 -.54408 319.01 258.62)" d="m321.43 168.08c0 34.715-28.142 62.857-62.857 62.857s-62.857-28.142-62.857-62.857 28.142-62.857 62.857-62.857 62.857 28.142 62.857 62.857z" fill="url(#e)" filter="url(#b)"/>
  <path transform="matrix(0 .48664 -.48664 0 541.48 41.346)" d="m321.43 168.08c0 34.715-28.142 62.857-62.857 62.857s-62.857-28.142-62.857-62.857 28.142-62.857 62.857-62.857 62.857 28.142 62.857 62.857z" fill="url(#f)"/>
  <path transform="matrix(.45958 0 0 .45958 340.85 89.933)" d="m321.43 168.08c0 34.715-28.142 62.857-62.857 62.857s-62.857-28.142-62.857-62.857 28.142-62.857 62.857-62.857 62.857 28.142 62.857 62.857z" fill="url(#g)" filter="url(#b)"/>
  <path transform="matrix(.45958 0 0 .45958 340.85 89.933)" d="m321.43 168.08c0 34.715-28.142 62.857-62.857 62.857s-62.857-28.142-62.857-62.857 28.142-62.857 62.857-62.857 62.857 28.142 62.857 62.857z" fill="url(#c)" filter="url(#b)"/>
  <path d="m459.64 144.36a3.2174 3.2174 0 0 0 -3.174 3.2602v21.5a3.2174 3.2174 0 1 0 6.4341 0v-21.5a3.2174 3.2174 0 0 0 -3.2602 -3.2602zm-8.7895 4.0644a3.218 3.218 0 0 0 -1.666 0.44522c-1.5966 0.92181-3.059 2.0393-4.3517 3.332s-2.4102 2.755-3.332 4.3517c-5.7817 10.014-2.3306 22.913 7.6836 28.695s22.913 2.3306 28.695-7.6836 2.3306-22.913-7.6836-28.695a3.218 3.218 0 1 0 -3.2171 5.5724c7.0028 4.0431 9.3714 12.903 5.3283 19.906s-12.903 9.3714-19.906 5.3283-9.3714-12.903-5.3283-19.906c1.2791-2.2154 3.1128-4.0492 5.3283-5.3283a3.218 3.218 0 0 0 -1.5511 -6.0176z"/>
  <path d="m459.69 141.28c-13.385 0-24.434 9.8616-26.158 22.643 7.1449 1.7772 16.24 2.845 26.158 2.845s19.025-1.0675 26.171-2.845c-1.723-12.782-12.786-22.643-26.171-22.643z" fill="url(#m)"/>
  <path transform="matrix(.45958 0 0 .45958 227.84 89.933)" d="m504.38 118.44a7.0007 7.0007 0 0 0 -6.9062 7.0938v46.781a7.0007 7.0007 0 1 0 14 0v-46.781a7.0007 7.0007 0 0 0 -7.0938 -7.0938zm-19.125 8.8438a7.002 7.002 0 0 0 -3.625 0.96875c-3.4741 2.0058-6.6562 4.4374-9.4688 7.25s-5.2442 5.9947-7.25 9.4688c-12.58 21.79-5.0712 49.857 16.719 62.438s49.857 5.0712 62.438-16.719 5.0712-49.857-16.719-62.438a7.002 7.002 0 1 0 -7 12.125c15.237 8.7974 20.391 28.075 11.594 43.312s-28.075 20.391-43.312 11.594-20.391-28.075-11.594-43.312c2.7831-4.8205 6.7732-8.8106 11.594-11.594a7.002 7.002 0 0 0 -3.375 -13.094z" fill="url(#n)" filter="url(#k)"/>
  <path transform="matrix(-.56497 0 0 -.56497 529.59 262.6)" d="m321.43 168.08c0 34.715-28.142 62.857-62.857 62.857s-62.857-28.142-62.857-62.857 28.142-62.857 62.857-62.857 62.857 28.142 62.857 62.857z" fill="url(#d)" stroke="#808080"/>
  <path transform="matrix(.54408 0 0 -.54408 242.82 259.09)" d="m321.43 168.08c0 34.715-28.142 62.857-62.857 62.857s-62.857-28.142-62.857-62.857 28.142-62.857 62.857-62.857 62.857 28.142 62.857 62.857z" fill="url(#e)" filter="url(#b)"/>
  <path transform="matrix(0 .48664 -.48664 0 465.3 41.81)" d="m321.43 168.08c0 34.715-28.142 62.857-62.857 62.857s-62.857-28.142-62.857-62.857 28.142-62.857 62.857-62.857 62.857 28.142 62.857 62.857z" fill="url(#f)"/>
  <path transform="matrix(.45958 0 0 .45958 264.67 90.397)" d="m321.43 168.08c0 34.715-28.142 62.857-62.857 62.857s-62.857-28.142-62.857-62.857 28.142-62.857 62.857-62.857 62.857 28.142 62.857 62.857z" fill="url(#g)" filter="url(#b)"/>
  <path transform="matrix(.45958 0 0 .45958 264.67 90.397)" d="m321.43 168.08c0 34.715-28.142 62.857-62.857 62.857s-62.857-28.142-62.857-62.857 28.142-62.857 62.857-62.857 62.857 28.142 62.857 62.857z" fill="url(#c)" filter="url(#b)"/>
  <path d="m383.46 144.83a3.2174 3.2174 0 0 0 -3.174 3.2602v21.5a3.2174 3.2174 0 1 0 6.4341 0v-21.5a3.2174 3.2174 0 0 0 -3.2602 -3.2602zm-8.7895 4.0644a3.218 3.218 0 0 0 -1.666 0.44522c-1.5966 0.92181-3.059 2.0393-4.3517 3.332s-2.4102 2.755-3.332 4.3517c-5.7817 10.014-2.3306 22.913 7.6836 28.695s22.913 2.3306 28.695-7.6836 2.3306-22.913-7.6836-28.695a3.218 3.218 0 1 0 -3.2171 5.5724c7.0028 4.0431 9.3714 12.903 5.3283 19.906s-12.903 9.3714-19.906 5.3283-9.3714-12.903-5.3283-19.906c1.2791-2.2154 3.1128-4.0492 5.3283-5.3283a3.218 3.218 0 0 0 -1.5511 -6.0176z"/>
  <path d="m383.5 141.74c-13.385 0-24.434 9.8616-26.158 22.643 7.1449 1.7772 16.24 2.845 26.158 2.845s19.025-1.0675 26.171-2.845c-1.723-12.782-12.786-22.643-26.171-22.643z" fill="url(#o)"/>
  <path transform="matrix(.45958 0 0 .45958 227.84 89.933)" d="m338.61 119.45a7.0007 7.0007 0 0 0 -6.9062 7.0938v46.781a7.0007 7.0007 0 1 0 14 0v-46.781a7.0007 7.0007 0 0 0 -7.0938 -7.0938zm-19.125 8.8438a7.002 7.002 0 0 0 -3.625 0.96875c-3.4741 2.0058-6.6562 4.4374-9.4688 7.25s-5.2442 5.9947-7.25 9.4688c-12.58 21.79-5.0712 49.857 16.719 62.438s49.857 5.0712 62.438-16.719 5.0712-49.857-16.719-62.438a7.002 7.002 0 1 0 -7 12.125c15.237 8.7974 20.391 28.075 11.594 43.312s-28.075 20.391-43.312 11.594-20.391-28.075-11.594-43.312c2.7831-4.8205 6.7732-8.8106 11.594-11.594a7.002 7.002 0 0 0 -3.375 -13.094z" fill="url(#p)" filter="url(#k)"/>
  <g transform="matrix(-1.1025 0 0 -.79439 733.73 235.91)" fill="#fff">
   <path transform="matrix(.78899 0 0 .71947 53.198 35.817)" d="m227.75 144.68 19.528-27.9 3.8487 7.5818-2.272-8.0137 24.844 5.4227-22.902-8.0352 15.24-6.1695-14.049 4.5898 31.427-23.098-34.24 23.103-0.0444-0.10694 5.8103-11.734-6.1937 10.302-3.2666 2.9221-12.132-1.0672 10.072 1.9393-34.569 11.243 34.851-8.8892-12.734 10.448 12.585-9.349-15.803 26.809z" filter="url(#j)"/>
   <path d="m241.15 128.34 6.6342-9.4781 1.3075 2.5757-0.77186-2.7224 8.4399 1.8422-7.7802-2.7297 5.1772-2.0959-4.7729 1.5592 10.676-7.8468-11.632 7.8487-0.0151-0.0363 1.9739-3.9863-2.1041 3.4999-1.1097 0.99271-4.1214-0.36256 3.4217 0.65882-11.744 3.8196 11.84-3.0199-4.326 3.5496 4.2755-3.1761-5.3686 9.1077z" filter="url(#i)"/>
  </g>
  <g transform="matrix(-1.1025 0 0 -.79439 657.55 236.37)" fill="#fff">
   <path transform="matrix(.78899 0 0 .71947 53.198 35.817)" d="m227.75 144.68 19.528-27.9 3.8487 7.5818-2.272-8.0137 24.844 5.4227-22.902-8.0352 15.24-6.1695-14.049 4.5898 31.427-23.098-34.24 23.103-0.0444-0.10694 5.8103-11.734-6.1937 10.302-3.2666 2.9221-12.132-1.0672 10.072 1.9393-34.569 11.243 34.851-8.8892-12.734 10.448 12.585-9.349-15.803 26.809z" filter="url(#j)"/>
   <path d="m241.15 128.34 6.6342-9.4781 1.3075 2.5757-0.77186-2.7224 8.4399 1.8422-7.7802-2.7297 5.1772-2.0959-4.7729 1.5592 10.676-7.8468-11.632 7.8487-0.0151-0.0363 1.9739-3.9863-2.1041 3.4999-1.1097 0.99271-4.1214-0.36256 3.4217 0.65882-11.744 3.8196 11.84-3.0199-4.326 3.5496 4.2755-3.1761-5.3686 9.1077z" filter="url(#i)"/>
  </g>
 </g>
</svg>
